#N canvas 1604 57 636 498 12;
#X obj 27 431 dac~;
#X floatatom 27 111 5 0 0 0 - - -;
#X obj 27 90 mtof;
#X floatatom 27 70 5 0 0 0 - - -;
#X floatatom 172 127 5 0 0 0 - - -;
#X obj 172 105 mtof;
#X floatatom 172 62 5 0 0 0 - - -;
#X obj 172 82 + 0.2;
#X obj 159 344 line~;
#X obj 171 202 *~;
#X obj 29 372 *~;
#X floatatom 211 156 5 0 0 0 Hz_R - -;
#X floatatom 109 129 5 0 0 0 Hz_L - -;
#X obj 27 181 osc~;
#X obj 171 180 osc~;
#X floatatom 205 258 5 0 80 0 - - -;
#X obj 205 280 dbtorms;
#X floatatom 205 303 5 0 0 0 - - -;
#X obj 205 325 pack 0 50;
#N canvas 2727 136 450 300 NETPD2 0;
#X restore 268 167 pd NETPD2 2 0;
#N canvas 2524 544 450 300 \$1-gamelan 1;
#X obj 114 12;
#X restore 269 194 pd \$1-gamelan;
#X obj 269 221 netpd_head \$1 gamelan;
#X obj 272 10 r \$0.unstep;
#X obj 272 34 t a a;
#X obj 272 57 sel 0;
#X msg 272 79 vis 1;
#X obj 272 102 unstep \$1 gamelan;
#X obj 27 43 route note;
#X obj 130 430 i2mx \$1 gamelan;
#X obj 129 455 switch~;
#X text 210 237 VOL;
#X obj 27 245 *~;
#X obj 27 267 +~;
#X obj 27 289 osc~;
#X obj 27 311 *~;
#X floatatom 45 221 5 0 0 0 - - -;
#X floatatom 59 250 5 0 0 0 - - -;
#X obj 13 462 throw~ audio;
#X obj 131 405 catch~ audio;
#X obj 273 129 s note;
#X obj 27 14 r note;
#X obj 394 337 *~;
#X obj 406 314 hsl 128 15 0 10 0 0 empty empty Gain -2 -8 0 10 -204786
-1 -1 0 1;
#X obj 395 397 *~;
#X obj 450 385 hsl 128 15 0 1 0 0 empty empty Output -2 -8 0 10 -204786
-1 -1 0 1;
#X obj 394 363 rev1~;
#X obj 395 425 dac~;
#X obj 450 85 loadbang;
#X msg 450 118 555;
#X msg 483 120 0;
#X text 444 63 load a waveform;
#X obj 153 22;
#X floatatom 200 29 5 0 0 0 - - -;
#X connect 1 0 12 0;
#X connect 1 0 13 0;
#X connect 2 0 1 0;
#X connect 3 0 2 0;
#X connect 4 0 11 0;
#X connect 4 0 14 0;
#X connect 5 0 4 0;
#X connect 6 0 7 0;
#X connect 7 0 5 0;
#X connect 8 0 10 1;
#X connect 8 0 9 1;
#X connect 9 0 0 1;
#X connect 10 0 0 0;
#X connect 10 0 37 0;
#X connect 13 0 31 0;
#X connect 14 0 9 0;
#X connect 15 0 16 0;
#X connect 16 0 17 0;
#X connect 17 0 18 0;
#X connect 18 0 8 0;
#X connect 22 0 23 0;
#X connect 23 0 24 1;
#X connect 23 1 24 0;
#X connect 24 0 25 0;
#X connect 27 0 3 0;
#X connect 27 0 6 0;
#X connect 31 0 32 0;
#X connect 32 0 33 0;
#X connect 33 0 34 0;
#X connect 34 0 10 0;
#X connect 35 0 31 1;
#X connect 36 0 32 1;
#X connect 40 0 27 0;
#X connect 41 0 45 0;
#X connect 42 0 41 1;
#X connect 43 0 46 0;
#X connect 43 0 46 1;
#X connect 44 0 43 1;
#X connect 45 0 43 0;
#X connect 47 0 48 0;
#X connect 47 0 49 0;
#X connect 48 0 35 0;
#X connect 49 0 36 0;
#X connect 51 0 52 0;
#X connect 52 0 6 0;
#X connect 52 0 3 0;
