#N canvas 2259 520 780 488 12;
#X obj 19 56 r notes;
#X floatatom 20 79 5 0 0 0 - - -;
#X obj 19 302 *~;
#X obj 19 325 dac~;
#X floatatom 82 304 5 0 0 0 - - -;
#N canvas 81 166 450 300 envo 0;
#X obj 71 45 bng 15 250 50 0 empty empty empty 17 7 0 10 -262144 -1
-1;
#X obj 32 127 line~;
#X msg 33 80 1 5;
#X obj 87 91 del 100;
#X obj 88 114 pack 0 500;
#X floatatom 156 76 5 0 0 0 - - -;
#X obj 31 151 *~;
#X obj 28 176 *~;
#X obj 236 11 inlet;
#X obj 33 214 outlet~;
#X obj 226 36 inlet;
#X connect 0 0 2 0;
#X connect 0 0 3 0;
#X connect 1 0 6 0;
#X connect 1 0 6 1;
#X connect 2 0 1 0;
#X connect 3 0 4 0;
#X connect 4 0 1 0;
#X connect 5 0 4 1;
#X connect 6 0 7 0;
#X connect 6 0 7 1;
#X connect 7 0 9 0;
#X connect 8 0 0 0;
#X connect 10 0 5 0;
#X restore 151 317 pd envo;
#N canvas 2447 332 450 300 syn 0;
#X obj 20 71 mtof;
#X obj 18 179 *~;
#X obj 110 74 bng 15 250 50 0 empty empty empty 17 7 0 10 -262144 -1
-1;
#X obj 110 142 line~;
#X msg 111 95 1 5;
#X obj 160 88 del 100;
#X obj 157 116 pack 0 500;
#X floatatom 228 91 5 0 0 0 - - -;
#X obj 109 166 *~;
#X obj 106 191 *~;
#X obj 20 129 osc~;
#X obj 17 40 inlet;
#X obj 23 226 outlet~;
#X msg 250 60 2000;
#X obj 250 37 loadbang;
#X connect 0 0 10 0;
#X connect 0 0 2 0;
#X connect 1 0 12 0;
#X connect 2 0 4 0;
#X connect 2 0 5 0;
#X connect 3 0 8 0;
#X connect 3 0 8 1;
#X connect 4 0 3 0;
#X connect 5 0 6 0;
#X connect 6 0 3 0;
#X connect 7 0 6 1;
#X connect 8 0 9 0;
#X connect 8 0 9 1;
#X connect 9 0 1 1;
#X connect 10 0 1 0;
#X connect 11 0 0 0;
#X connect 13 0 7 0;
#X connect 14 0 13 0;
#X restore 151 295 pd syn;
#X msg 451 204 \; pd dsp 1 \;;
#X msg 366 205 \; pd dsp 0 \;;
#X obj 452 185 bng 15 250 50 0 empty empty empty 17 7 0 10 -262144
-1 -1;
#X obj 366 186 bng 15 250 50 0 empty empty empty 17 7 0 10 -262144
-1 -1;
#X msg 20 101 next \$1;
#X floatatom 170 171 5 0 0 0 - - -;
#X floatatom 436 122 5 0 0 0 - - -;
#X obj 436 141 s notes;
#N canvas 1992 28 450 300 many_notes 0;
#X obj 211 108 table notes;
#X obj 58 192 tabread notes;
#X floatatom 58 169 5 0 0 0 - - -;
#X floatatom 59 215 5 0 0 0 - - -;
#X obj 57 33 inlet;
#X obj 57 79 bng 15 250 50 0 empty empty empty 17 7 0 10 -262144 -1
-1;
#X obj 57 100 i 0;
#X obj 79 124 + 1;
#X obj 79 147 % 6;
#X obj 59 243 outlet;
#X obj 212 13 loadbang;
#X obj 57 56 metro 666;
#X msg 216 57 \; notes 0 61 65 72 68 63 66;
#X connect 1 0 3 0;
#X connect 2 0 1 0;
#X connect 3 0 9 0;
#X connect 4 0 11 0;
#X connect 5 0 6 0;
#X connect 6 0 7 0;
#X connect 6 0 2 0;
#X connect 7 0 8 0;
#X connect 8 0 6 1;
#X connect 10 0 12 0;
#X connect 11 0 5 0;
#X restore 436 63 pd many_notes;
#X obj 436 43 tgl 15 0 empty empty empty 17 7 0 10 -262144 -1 -1 0
1;
#X obj 272 189 tgl 15 0 empty empty empty 17 7 0 10 -262144 -1 -1 1
1;
#X obj 272 227 random 3;
#X obj 272 248 sel 0 1 2;
#X obj 20 122 clone syn.cl 64;
#X obj 270 13 bng 30 250 50 0 empty empty empty 17 7 0 10 -204786 -1
-1;
#X obj 271 150 del 7000;
#X obj 170 194 s decaylen;
#X text 77 330 VOLUME;
#N canvas 1959 32 450 300 two_notes 0;
#X obj 180 62 inlet;
#X floatatom 169 233 5 0 0 0 - - -;
#X obj 169 255 outlet;
#X msg 364 178 63;
#X obj 181 87 metro 333;
#X msg 401 178 56;
#X obj 185 110 random 7;
#X obj 185 136 sel 0 1 2 3 4 5 6;
#X msg 160 182 61;
#X msg 196 182 65;
#X msg 241 180 63;
#X msg 279 180 68;
#X msg 325 178 66;
#X connect 0 0 4 0;
#X connect 1 0 2 0;
#X connect 3 0 1 0;
#X connect 4 0 6 0;
#X connect 5 0 1 0;
#X connect 6 0 7 0;
#X connect 7 0 8 0;
#X connect 7 1 9 0;
#X connect 7 2 10 0;
#X connect 7 3 11 0;
#X connect 7 4 12 0;
#X connect 7 5 3 0;
#X connect 7 6 5 0;
#X connect 8 0 1 0;
#X connect 9 0 1 0;
#X connect 10 0 1 0;
#X connect 11 0 1 0;
#X connect 12 0 1 0;
#X restore 337 64 pd two_notes;
#X obj 337 43 tgl 15 0 empty empty empty 17 7 0 10 -262144 -1 -1 0
1;
#X obj 337 84 + 12;
#X floatatom 538 65 5 0 0 0 - - -;
#X obj 436 88 pipe 667;
#X text 364 43 upbeat;
#X msg 514 154 \; notes 0 56 68 62 60 67 70;
#X msg 511 113 \; notes 0 56 60 62 60 55 70;
#X obj 142 119 writesf~ 2;
#X msg 161 61 start;
#X msg 173 83 stop;
#X obj 272 207 metro 1000;
#X msg 142 38 open bells.wav;
#X obj 503 88 + 12;
#X msg 312 269 \; notes 0 66 72 61 68 65;
#X msg 292 305 \; notes 0 61 66 63 65 68;
#X msg 271 340 \; notes 0 66 55 56 60 70;
#X floatatom 108 193 5 0 80 0 - - -;
#X obj 108 215 dbtorms;
#X floatatom 108 238 5 0 0 0 - - -;
#X obj 108 257 pack 0 50;
#X obj 105 279 line~;
#X connect 0 0 1 0;
#X connect 1 0 11 0;
#X connect 2 0 3 0;
#X connect 2 0 3 1;
#X connect 2 0 33 0;
#X connect 2 0 33 1;
#X connect 4 0 2 1;
#X connect 9 0 7 0;
#X connect 10 0 8 0;
#X connect 11 0 20 0;
#X connect 12 0 23 0;
#X connect 13 0 14 0;
#X connect 15 0 38 0;
#X connect 15 0 13 0;
#X connect 16 0 15 0;
#X connect 17 0 36 0;
#X connect 18 0 19 0;
#X connect 19 0 41 0;
#X connect 19 1 40 0;
#X connect 19 2 39 0;
#X connect 20 0 2 0;
#X connect 21 0 16 0;
#X connect 21 0 22 0;
#X connect 21 0 26 0;
#X connect 22 0 17 0;
#X connect 25 0 27 0;
#X connect 26 0 25 0;
#X connect 27 0 13 0;
#X connect 28 0 29 1;
#X connect 34 0 33 0;
#X connect 35 0 33 0;
#X connect 36 0 18 0;
#X connect 37 0 33 0;
#X connect 38 0 13 0;
#X connect 42 0 43 0;
#X connect 43 0 44 0;
#X connect 44 0 45 0;
#X connect 45 0 46 0;
#X connect 46 0 2 1;
