#N canvas 2553 78 784 707 12;
#X obj 175 503 osc~;
#X obj 183 632 *~;
#X obj 341 736 dac~;
#X floatatom 175 483 5 0 0 0 - - -;
#X obj 196 330 random 4;
#X obj 196 350 route 0 1 2;
#X obj 226 245 random 4;
#X obj 336 185 tgl 18 0 empty empty empty 17 7 0 10 -204786 -1 -1 0
1;
#X msg 500 187 \; pd dsp 0 \;;
#X msg 577 187 \; pd dsp 1 \;;
#X obj 577 161 bng 18 250 50 0 empty empty empty 17 7 0 10 -204786
-1 -1;
#X obj 500 161 bng 18 250 50 0 empty empty empty 17 7 0 10 -204786
-1 -1;
#X obj 237 529 *;
#X obj 183 613 osc~;
#X obj 78 491 osc~;
#X obj 79 574 *~;
#X floatatom 78 469 5 0 0 0 - - -;
#X obj 49 330 random 4;
#X obj 49 350 route 0 1 2;
#X obj 114 249 random 4;
#X obj 114 269 * 200;
#X obj 79 512 / 2;
#X obj 79 532 *;
#X obj 79 553 osc~;
#X obj 78 445 line;
#X obj 114 289 t f f;
#X obj 359 497 osc~;
#X obj 360 579 *~;
#X floatatom 359 475 5 0 0 0 - - -;
#X obj 330 330 random 4;
#X obj 330 350 route 0 1 2;
#X obj 394 247 random 4;
#X obj 394 267 * 200;
#X obj 359 517 / 2;
#X obj 359 537 *;
#X obj 359 558 osc~;
#X obj 359 451 line;
#X obj 394 287 t f f;
#X obj 502 490 osc~;
#X obj 503 572 *~;
#X floatatom 502 468 5 0 0 0 - - -;
#X obj 480 337 random 4;
#X obj 480 357 route 0 1 2;
#X obj 545 256 random 4;
#X obj 545 276 * 200;
#X obj 502 510 / 2;
#X obj 502 530 *;
#X obj 502 551 osc~;
#X obj 545 296 t f f;
#X msg 92 394 391.995;
#X msg 24 419 466.164;
#X msg 98 419 587.3;
#X msg 157 394 261.626;
#X msg 161 414 466.164;
#X msg 223 414 587.3;
#X msg 303 417 466.164;
#X msg 450 403 261.626;
#X msg 454 423 466.164;
#X msg 516 423 587.3;
#X obj 237 509 / 2;
#X obj 175 463 / 2;
#X msg 219 394 391.995;
#X msg 512 403 391.995;
#X msg 361 397 311.127;
#X obj 501 446 / 2;
#X msg 299 397 293.626;
#X msg 365 417 587.3;
#X msg 32 395 261.626;
#X obj 49 372 bng 18 250 50 0 empty empty empty 17 7 0 10 -204786 -1
-1;
#X obj 73 372 bng 18 250 50 0 empty empty empty 17 7 0 10 -204786 -1
-1;
#X obj 98 372 bng 18 250 50 0 empty empty empty 17 7 0 10 -204786 -1
-1;
#X obj 122 372 bng 18 250 50 0 empty empty empty 17 7 0 10 -204786
-1 -1;
#X obj 196 372 bng 18 250 50 0 empty empty empty 17 7 0 10 -204786
-1 -1;
#X obj 220 372 bng 18 250 50 0 empty empty empty 17 7 0 10 -204786
-1 -1;
#X obj 245 372 bng 18 250 50 0 empty empty empty 17 7 0 10 -204786
-1 -1;
#X obj 270 372 bng 18 250 50 0 empty empty empty 17 7 0 10 -204786
-1 -1;
#X obj 328 374 bng 18 250 50 0 empty empty empty 17 7 0 10 -204786
-1 -1;
#X obj 354 373 bng 18 250 50 0 empty empty empty 17 7 0 10 -204786
-1 -1;
#X obj 379 373 bng 18 250 50 0 empty empty empty 17 7 0 10 -204786
-1 -1;
#X obj 403 373 bng 18 250 50 0 empty empty empty 17 7 0 10 -204786
-1 -1;
#X obj 480 380 bng 18 250 50 0 empty empty empty 17 7 0 10 -204786
-1 -1;
#X obj 504 380 bng 18 250 50 0 empty empty empty 17 7 0 10 -204786
-1 -1;
#X obj 529 380 bng 18 250 50 0 empty empty empty 17 7 0 10 -204786
-1 -1;
#X obj 554 380 bng 18 250 50 0 empty empty empty 17 7 0 10 -204786
-1 -1;
#X obj 226 285 t f f;
#X obj 226 265 * 100;
#X obj 79 596 *~;
#X floatatom 114 553 5 0 0 0 - - -;
#X obj 79 616 +~;
#X obj 79 638 osc~;
#X floatatom 107 573 5 0 0 0 - - -;
#X obj 79 658 *~;
#X msg 108 512 555;
#X obj 360 599 *~;
#X floatatom 394 558 5 0 0 0 - - -;
#X obj 360 620 +~;
#X obj 360 639 osc~;
#X floatatom 388 578 5 0 0 0 - - -;
#X obj 360 659 *~;
#X msg 386 537 0;
#X obj 319 226 loadbang;
#X obj 240 594 *~;
#X floatatom 271 550 5 0 0 0 - - -;
#X obj 240 625 +~;
#X obj 236 647 osc~;
#X floatatom 202 567 5 0 0 0 - - -;
#X obj 308 597 *~;
#X msg 266 509 555;
#X msg 266 529 0;
#X obj 503 593 *~;
#X floatatom 536 551 5 0 0 0 - - -;
#X obj 503 614 +~;
#X obj 503 635 osc~;
#X floatatom 531 572 5 0 0 0 - - -;
#X obj 503 655 *~;
#X obj 651 487 osc~;
#X obj 651 507 *~;
#X floatatom 651 467 5 0 0 0 - - -;
#X obj 629 334 random 4;
#X obj 629 354 route 0 1 2;
#X obj 694 253 random 4;
#X obj 694 273 * 200;
#X obj 652 528 / 2;
#X obj 652 548 *;
#X obj 652 569 osc~;
#X obj 694 293 t f f;
#X msg 599 400 261.626;
#X msg 603 420 466.164;
#X msg 665 420 587.3;
#X msg 661 400 391.995;
#X obj 629 377 bng 18 250 50 0 empty empty empty 17 7 0 10 -204786
-1 -1;
#X obj 653 377 bng 18 250 50 0 empty empty empty 17 7 0 10 -204786
-1 -1;
#X obj 678 377 bng 18 250 50 0 empty empty empty 17 7 0 10 -204786
-1 -1;
#X obj 703 377 bng 18 250 50 0 empty empty empty 17 7 0 10 -204786
-1 -1;
#X obj 652 589 *~;
#X floatatom 685 547 5 0 0 0 - - -;
#X obj 652 610 +~;
#X obj 652 631 osc~;
#X floatatom 685 567 5 0 0 0 - - -;
#X obj 652 651 *~;
#X msg 685 507 555;
#X msg 685 527 0;
#X obj 650 447 line;
#X obj 629 314 metro 800;
#X msg 529 530 0;
#X msg 529 510 555;
#X msg 386 517 420;
#X msg 108 532 -1;
#X obj 196 310 metro 250;
#X obj 330 308 metro 250;
#X obj 480 317 metro 1000;
#X obj 49 310 metro 125;
#X obj 336 122 tgl 18 0 empty empty empty 17 7 0 10 -204786 -1 -1 0
1;
#X obj 55 194 inlet;
#X obj 77 708 outlet~;
#X obj 138 188 inlet;
#X obj 188 181 inlet;
#X obj 271 175 inlet;
#X msg 203 112 0;
#X connect 0 0 1 0;
#X connect 0 0 101 0;
#X connect 3 0 0 0;
#X connect 3 0 59 0;
#X connect 4 0 5 0;
#X connect 5 0 72 0;
#X connect 5 1 73 0;
#X connect 5 2 74 0;
#X connect 5 3 75 0;
#X connect 7 0 1 1;
#X connect 7 0 15 1;
#X connect 7 0 24 2;
#X connect 7 0 27 1;
#X connect 7 0 36 2;
#X connect 7 0 39 1;
#X connect 7 0 142 2;
#X connect 7 0 116 1;
#X connect 7 0 143 0;
#X connect 7 0 148 0;
#X connect 7 0 149 0;
#X connect 7 0 150 0;
#X connect 7 0 151 0;
#X connect 10 0 9 0;
#X connect 11 0 8 0;
#X connect 12 0 13 0;
#X connect 13 0 1 0;
#X connect 14 0 15 0;
#X connect 14 0 86 0;
#X connect 16 0 14 0;
#X connect 16 0 21 0;
#X connect 17 0 18 0;
#X connect 18 0 68 0;
#X connect 18 1 69 0;
#X connect 18 2 70 0;
#X connect 18 3 71 0;
#X connect 20 0 25 0;
#X connect 21 0 22 0;
#X connect 22 0 23 0;
#X connect 23 0 15 0;
#X connect 24 0 16 0;
#X connect 25 0 151 1;
#X connect 25 1 24 1;
#X connect 26 0 27 0;
#X connect 26 0 93 0;
#X connect 28 0 26 0;
#X connect 28 0 33 0;
#X connect 29 0 30 0;
#X connect 30 0 76 0;
#X connect 30 1 77 0;
#X connect 30 2 78 0;
#X connect 30 3 79 0;
#X connect 32 0 37 0;
#X connect 33 0 34 0;
#X connect 34 0 35 0;
#X connect 35 0 27 0;
#X connect 36 0 28 0;
#X connect 37 0 149 1;
#X connect 37 1 36 1;
#X connect 38 0 39 0;
#X connect 38 0 109 0;
#X connect 40 0 38 0;
#X connect 40 0 45 0;
#X connect 41 0 42 0;
#X connect 42 0 80 0;
#X connect 42 1 81 0;
#X connect 42 2 82 0;
#X connect 42 3 83 0;
#X connect 44 0 48 0;
#X connect 45 0 46 0;
#X connect 46 0 47 0;
#X connect 47 0 39 0;
#X connect 48 0 150 1;
#X connect 48 1 64 0;
#X connect 49 0 24 0;
#X connect 50 0 24 0;
#X connect 51 0 24 0;
#X connect 52 0 60 0;
#X connect 53 0 60 0;
#X connect 54 0 60 0;
#X connect 55 0 36 0;
#X connect 56 0 64 0;
#X connect 57 0 64 0;
#X connect 58 0 64 0;
#X connect 59 0 12 0;
#X connect 60 0 3 0;
#X connect 61 0 60 0;
#X connect 62 0 64 0;
#X connect 63 0 36 0;
#X connect 64 0 40 0;
#X connect 65 0 36 0;
#X connect 66 0 36 0;
#X connect 67 0 24 0;
#X connect 68 0 67 0;
#X connect 69 0 49 0;
#X connect 70 0 50 0;
#X connect 71 0 51 0;
#X connect 72 0 52 0;
#X connect 73 0 61 0;
#X connect 74 0 53 0;
#X connect 75 0 54 0;
#X connect 76 0 65 0;
#X connect 77 0 63 0;
#X connect 78 0 55 0;
#X connect 79 0 66 0;
#X connect 80 0 56 0;
#X connect 81 0 62 0;
#X connect 82 0 57 0;
#X connect 83 0 58 0;
#X connect 84 0 148 1;
#X connect 84 1 60 0;
#X connect 85 0 84 0;
#X connect 86 0 88 0;
#X connect 87 0 86 1;
#X connect 88 0 89 0;
#X connect 89 0 91 0;
#X connect 90 0 88 1;
#X connect 91 0 2 0;
#X connect 91 0 154 0;
#X connect 92 0 87 0;
#X connect 93 0 95 0;
#X connect 94 0 93 1;
#X connect 95 0 96 0;
#X connect 96 0 98 0;
#X connect 97 0 95 1;
#X connect 98 0 2 1;
#X connect 99 0 97 0;
#X connect 100 0 146 0;
#X connect 100 0 99 0;
#X connect 100 0 92 0;
#X connect 100 0 147 0;
#X connect 100 0 107 0;
#X connect 100 0 108 0;
#X connect 100 0 145 0;
#X connect 100 0 140 0;
#X connect 101 0 103 0;
#X connect 102 0 101 1;
#X connect 103 0 104 0;
#X connect 104 0 106 0;
#X connect 105 0 103 1;
#X connect 106 0 2 1;
#X connect 107 0 102 0;
#X connect 108 0 105 0;
#X connect 109 0 111 0;
#X connect 110 0 109 1;
#X connect 111 0 112 0;
#X connect 112 0 114 0;
#X connect 113 0 111 1;
#X connect 114 0 2 0;
#X connect 115 0 116 0;
#X connect 115 0 134 0;
#X connect 117 0 115 0;
#X connect 117 0 122 0;
#X connect 118 0 119 0;
#X connect 119 0 130 0;
#X connect 119 1 131 0;
#X connect 119 2 132 0;
#X connect 119 3 133 0;
#X connect 121 0 125 0;
#X connect 122 0 123 0;
#X connect 123 0 124 0;
#X connect 124 0 116 0;
#X connect 125 0 143 1;
#X connect 125 1 142 0;
#X connect 126 0 142 0;
#X connect 127 0 142 0;
#X connect 128 0 142 0;
#X connect 129 0 142 0;
#X connect 130 0 126 0;
#X connect 131 0 129 0;
#X connect 132 0 127 0;
#X connect 133 0 128 0;
#X connect 134 0 136 0;
#X connect 135 0 134 1;
#X connect 136 0 137 0;
#X connect 137 0 139 0;
#X connect 138 0 136 1;
#X connect 139 0 2 1;
#X connect 140 0 135 0;
#X connect 141 0 138 0;
#X connect 142 0 117 0;
#X connect 143 0 118 0;
#X connect 143 0 120 0;
#X connect 144 0 113 0;
#X connect 145 0 110 0;
#X connect 146 0 94 0;
#X connect 147 0 90 0;
#X connect 148 0 4 0;
#X connect 148 0 6 0;
#X connect 149 0 29 0;
#X connect 149 0 31 0;
#X connect 150 0 41 0;
#X connect 150 0 43 0;
#X connect 151 0 17 0;
#X connect 151 0 19 0;
#X connect 152 0 7 0;
#X connect 153 0 151 0;
#X connect 155 0 91 1;
#X connect 156 0 148 0;
#X connect 157 0 106 1;
#X connect 158 0 151 0;
#X connect 158 0 148 0;
