#N canvas 2148 109 879 684 12;
#X obj 47 330 catch~ \$0-output;
#X obj 47 351 /~ 5;
#X obj 47 376 dac~ 1 2;
#X text 46 303 // MASTER OUTPUT;
#X obj 632 549 tgl 15 0 empty empty empty 17 7 0 10 -262144 -1 -1 0
1;
#X obj 632 572 metro 200;
#X obj 632 596 tabwrite~ \$0-scope;
#N canvas 0 22 450 278 (subpatch) 0;
#X array \$0-scope 8820 float 0;
#X coords 0 1 8820 -1 200 140 1;
#X restore 613 387 graph;
#X obj 373 220 tgl 15 0 empty empty empty 17 7 0 10 -262144 -1 -1 1
1;
#X obj 373 237 route 0 1;
#X msg 373 256 \; pd dsp 0 \;;
#X msg 448 256 \; pd dsp 1 \;;
#X obj 152 386 writesf~ 2;
#X msg 180 304 start;
#X msg 180 349 stop;
#X msg 180 327 open simpdrums.wav;
#N canvas 1461 478 485 431 bass_drum 0;
#X obj 14 114 inlet;
#X obj 14 137 bng 15 250 50 0 empty empty empty 17 7 0 10 -262144 -1
-1;
#X msg 14 158 0 \, 1 200;
#X obj 14 182 line~;
#X obj 14 204 sqrt~;
#X obj 14 225 *~ 20;
#X obj 14 246 -~ 20;
#X obj 14 268 cos~;
#X obj 14 295 throw~ \$0-output;
#X text 171 61 // BASS DRUM;
#X text 77 158 Ramp Generator;
#X text 56 204 Phase Distortion = Pitch Bend;
#X text 55 224 Pitch;
#X text 51 267 Cosine waveshaper;
#X connect 0 0 1 0;
#X connect 1 0 2 0;
#X connect 2 0 3 0;
#X connect 3 0 4 0;
#X connect 4 0 5 0;
#X connect 5 0 6 0;
#X connect 6 0 7 0;
#X connect 7 0 8 0;
#X restore 33 261 pd bass_drum;
#N canvas 1645 134 608 467 snare_drum 0;
#X obj 103 34 inlet;
#X obj 103 80 bng 15 250 50 0 empty empty empty 17 7 0 10 -262144 -1
-1;
#X obj 104 98 t b b;
#X obj 104 143 line~;
#X obj 104 166 pow~ 4;
#X obj 104 188 *~;
#X obj 104 211 +~;
#X obj 104 257 throw~ \$0-output;
#X msg 104 121 1 \, 0 100;
#X obj 223 146 line~;
#X obj 223 168 pow~ 4;
#X obj 223 190 *~;
#X msg 223 123 1 \, 0 200;
#X obj 296 126 noise~;
#X obj 296 147 hip~ 3000;
#X obj 296 169 bp~ 5000 2;
#X obj 104 234 lop~ 4000;
#X obj 156 169 osc~ 250;
#X text 122 76 // DRUM;
#X text 345 123 // SNARES;
#X connect 0 0 1 0;
#X connect 1 0 2 0;
#X connect 2 0 8 0;
#X connect 2 1 12 0;
#X connect 3 0 4 0;
#X connect 4 0 5 0;
#X connect 5 0 6 0;
#X connect 6 0 16 0;
#X connect 8 0 3 0;
#X connect 9 0 10 0;
#X connect 10 0 11 0;
#X connect 11 0 6 1;
#X connect 12 0 9 0;
#X connect 13 0 14 0;
#X connect 14 0 15 0;
#X connect 15 0 11 1;
#X connect 16 0 7 0;
#X connect 17 0 5 1;
#X restore 139 261 pd snare_drum;
#N canvas 1695 50 730 506 hi_hat 0;
#X obj 43 19 inlet;
#X obj 55 104 bng 15 250 50 0 empty empty empty 17 7 0 10 -262144 -1
-1;
#X msg 55 121 1 \, 0 100;
#X obj 55 142 line~;
#X obj 55 163 pow~ 4;
#X obj 55 184 *~;
#X obj 163 157 hip~ 8000;
#X obj 163 178 hip~ 8000;
#X text 72 101 //HI HAT;
#X obj 55 226 throw~ \$0-output;
#X obj 137 40 phasor~ 350;
#X obj 137 61 *~ 2;
#X obj 137 83 -~ 1;
#X obj 222 60 *~ 2;
#X obj 222 82 -~ 1;
#X obj 222 39 phasor~ 800;
#X obj 164 133 +~;
#X obj 163 199 hip~ 8000;
#X obj 55 205 *~ 4;
#X obj 257 60 noise~;
#X obj 257 82 /~ 5;
#X connect 0 0 1 0;
#X connect 1 0 2 0;
#X connect 2 0 3 0;
#X connect 3 0 4 0;
#X connect 4 0 5 0;
#X connect 5 0 18 0;
#X connect 6 0 7 0;
#X connect 7 0 17 0;
#X connect 10 0 11 0;
#X connect 11 0 12 0;
#X connect 12 0 16 0;
#X connect 13 0 14 0;
#X connect 14 0 16 1;
#X connect 15 0 13 0;
#X connect 16 0 6 0;
#X connect 17 0 5 1;
#X connect 18 0 9 0;
#X connect 19 0 20 0;
#X connect 20 0 6 0;
#X restore 243 260 pd hi_hat;
#N canvas 0 22 450 278 (subpatch) 0;
#X array \$0-steps 16 float 3;
#A 0 4 10 4 10 5 10 2 1 2 1 4 0 5 10 2 1;
#X coords 0 6 16 0 200 140 1 0 0;
#X restore 615 79 graph;
#X text 163 158 0=k \, 1=s \, 2=h \, 3=ks \, 4=kh \, 5=sh \, 6=ksh
;
#X obj 333 110 array set \$0-steps;
#X msg 333 79 4 2 2 2 5 2 2 2 4 2 2 2 5 2 2 2;
#X obj 33 119 array get \$0-steps;
#X obj 33 157 sel 0 1 2 3 4 5 6;
#X obj 34 67 counter;
#X floatatom 80 40 5 0 0 0 BPM - -;
#X obj 34 14 tgl 20 0 empty empty START/STOP 17 7 0 10 -204786 -1 -1
0 1;
#X obj 34 93 hradio 15 1 0 16 empty empty empty 0 -8 0 10 -262144 -1
-1 4;
#X msg 333 34 4 10 4 10 5 10 2 1 2 1 4 0 5 10 2 1;
#X connect 0 0 1 0;
#X connect 1 0 2 0;
#X connect 1 0 2 1;
#X connect 1 0 12 0;
#X connect 1 0 12 1;
#X connect 4 0 5 0;
#X connect 5 0 6 0;
#X connect 8 0 9 0;
#X connect 9 0 10 0;
#X connect 9 1 11 0;
#X connect 13 0 12 0;
#X connect 14 0 12 0;
#X connect 15 0 12 0;
#X connect 22 0 21 0;
#X connect 23 0 24 0;
#X connect 24 0 16 0;
#X connect 24 1 17 0;
#X connect 24 2 18 0;
#X connect 24 3 16 0;
#X connect 24 3 17 0;
#X connect 24 4 16 0;
#X connect 24 4 18 0;
#X connect 24 5 17 0;
#X connect 24 5 18 0;
#X connect 24 6 16 0;
#X connect 24 6 17 0;
#X connect 24 6 18 0;
#X connect 25 0 28 0;
#X connect 26 0 25 1;
#X connect 27 0 25 0;
#X connect 28 0 23 0;
#X connect 29 0 21 0;
