#N canvas 0 23 450 300 12;
#X obj 20 71 mtof;
#X obj 18 179 *~;
#X obj 110 74 bng 15 250 50 0 empty empty empty 17 7 0 10 -262144 -1
-1;
#X obj 110 142 line~;
#X msg 111 95 1 5;
#X obj 160 88 del 100;
#X obj 157 116 pack 0 500;
#X floatatom 228 91 5 0 0 0 - - -;
#X obj 109 166 *~;
#X obj 106 191 *~;
#X obj 20 129 osc~;
#X obj 17 40 inlet;
#X obj 23 226 outlet~;
#X msg 250 60 2000;
#X obj 250 37 loadbang;
#X obj 158 41 r decaylen;
#X connect 0 0 10 0;
#X connect 0 0 2 0;
#X connect 1 0 12 0;
#X connect 2 0 4 0;
#X connect 2 0 5 0;
#X connect 3 0 8 0;
#X connect 3 0 8 1;
#X connect 4 0 3 0;
#X connect 5 0 6 0;
#X connect 6 0 3 0;
#X connect 7 0 6 1;
#X connect 8 0 9 0;
#X connect 8 0 9 1;
#X connect 9 0 1 1;
#X connect 10 0 1 0;
#X connect 11 0 0 0;
#X connect 13 0 7 0;
#X connect 14 0 13 0;
#X connect 15 0 7 0;
